<?xml version="1.0" encoding="UTF-8" standalone="no"?>
<svg
   xmlns:dc="http://purl.org/dc/elements/1.1/"
   xmlns:cc="http://creativecommons.org/ns#"
   xmlns:rdf="http://www.w3.org/1999/02/22-rdf-syntax-ns#"
   xmlns:svg="http://www.w3.org/2000/svg"
   xmlns="http://www.w3.org/2000/svg"
   xml:space="preserve"
   id="svg2"
   viewBox="0 0 55 55"
   height="55"
   width="55"
   version="1.1"><metadata
     id="metadata25"><rdf:RDF><cc:Work
         rdf:about=""><dc:format>image/svg+xml</dc:format><dc:type
           rdf:resource="http://purl.org/dc/dcmitype/StillImage" /><dc:title></dc:title></cc:Work></rdf:RDF></metadata><defs
     id="defs33" /><g
     id="g4382"
     transform="matrix(0.55205508,0,0,0.55205508,43.118464,18.235971)"><g
       style="fill:none;stroke:#ffffff;stroke-opacity:1"
       id="g4308"
       transform="translate(-80.093659,12.220029)"><g
         style="fill:none;stroke:#ffffff;stroke-opacity:1"
         id="g4310"><path
           style="fill:none;stroke:#ffffff;stroke-width:3.5;stroke-linecap:round;stroke-linejoin:round;stroke-opacity:1"
           id="path4312"
           d="m 6.736,49.002 h 24.52 c 2.225,0 3.439,-1.447 3.439,-3.441 v -27.28 c 0,-1.73 -1.732,-3.441 -3.439,-3.441 h -4.389" /></g></g><g
       style="fill:none;stroke:#ffffff;stroke-opacity:1"
       id="g4314"
       transform="translate(-80.093659,12.220029)"><g
         style="fill:none;stroke:#ffffff;stroke-opacity:1"
         id="g4316"><path
           style="fill:none;stroke:#ffffff;stroke-width:3.5;stroke-linecap:round;stroke-linejoin:round;stroke-opacity:1"
           id="path4318"
           d="m 26.867,38.592 c 0,1.836 -1.345,3.201 -3.441,4.047 L 6.736,49.002 V 14.84 l 16.69,-8.599 c 2.228,-0.394 3.441,0.84 3.441,2.834 z" /></g></g><path
       style="fill:none;stroke:#ffffff;stroke-width:2.25;stroke-linecap:round;stroke-linejoin:round;stroke-opacity:1"
       id="path4320"
       d="m -70.669659,54.827029 c 0,0 -1.351,-0.543 -2.702,-0.543 -1.351,0 -2.703,0.543 -2.703,0.543" /><path
       style="fill:none;stroke:#ffffff;stroke-width:2.25;stroke-linecap:round;stroke-linejoin:round;stroke-opacity:1"
       id="path4322"
       d="m -70.669659,44.226029 c 0,0 -1.239,-0.543 -2.815,-0.543 -1.577,0 -2.59,0.543 -2.59,0.543" /><path
       style="fill:none;stroke:#ffffff;stroke-width:2.25;stroke-linecap:round;stroke-linejoin:round;stroke-opacity:1"
       id="path4324"
       d="m -70.669659,33.898029 c 0,0 -1.125,-0.544 -2.927,-0.544 -1.802,0 -2.478,0.544 -2.478,0.544" /><line
       id="line4326"
       y2="23.725029"
       y1="58.753029"
       x2="-66.884659"
       x1="-66.884659"
       style="fill:none;stroke:#ffffff;stroke-width:2.25;stroke-linecap:round;stroke-linejoin:round;stroke-opacity:1" /></g><path
     style="display:inline;fill:#ffffff;fill-opacity:1;stroke:none"
     id="path3890"
     d="m 33.426691,12.275117 c -4.727185,0 -8.666312,4.714399 -8.666312,4.714399 0,0 3.939127,4.737646 8.666312,4.735322 4.729509,-0.0046 8.668637,-4.739971 8.668637,-4.739971 0,0 -3.939128,-4.713237 -8.668637,-4.70975 z m 0,8.039818 c -1.830666,0 -3.314958,-1.484292 -3.314958,-3.31612 0,-1.827179 1.484292,-3.314958 3.314958,-3.314958 1.828341,0 3.312632,1.487779 3.312632,3.314958 0,1.831828 -1.484291,3.31612 -3.312632,3.31612 z" /><g
     style="display:inline;fill:none;stroke:#ffffff;stroke-width:2.15085721;stroke-miterlimit:4;stroke-dasharray:none;stroke-opacity:1"
     id="g3882"
     transform="matrix(1.1623273,0,0,1.1623273,1.577976,-12.63995)"><g
       style="fill:none;stroke:#ffffff;stroke-width:2.15085721;stroke-miterlimit:4;stroke-dasharray:none;stroke-opacity:1"
       id="g3884"><polygon
         style="fill:none;stroke:#ffffff;stroke-width:2.15085721;stroke-miterlimit:4;stroke-dasharray:none;stroke-opacity:1"
         id="polygon3886"
         points="35.281,13.812 15.204,13.812 15.204,35.189 43.041,35.189 43.041,21.577 " /><polyline
         style="fill:none;stroke:#ffffff;stroke-width:2.15085721;stroke-miterlimit:4;stroke-dasharray:none;stroke-opacity:1"
         points="35.281,13.812 35.281,21.577 43.041,21.577    "
         id="polyline3888" /></g></g><circle
     style="display:inline;fill:#ffffff;fill-opacity:1;stroke:none;stroke-width:1.16232729"
     id="circle3892"
     r="1.5040516"
     cy="16.999977"
     cx="33.427853" /><g
     id="g4770"
     transform="matrix(0,-1,-1,0,40.937599,88.475261)"><g
       id="g4772"
       transform="translate(34.0803,-1006.42)"><polyline
         id="polyline4774"
         points="51.562,15.306 41.17,16.188 42.053,5.794"
         style="fill:none;stroke:#ffffff;stroke-width:3.5;stroke-linecap:round;stroke-linejoin:round"
         transform="matrix(-0.469241,0.469241,-0.469241,-0.469241,66.2906,1019.03)" /><path
         style="fill:none;stroke:#ffffff;stroke-width:2.5;stroke-linecap:round;stroke-linejoin:round;stroke-miterlimit:4;stroke-dasharray:none;stroke-opacity:1"
         id="path4776"
         d="m 39.363241,1033.1291 -0.05636,9.9115 -8.750608,0.067" /></g></g></svg>