<?xml version="1.0" encoding="utf-8"?>
<!-- Generator: Adobe Illustrator 12.0.0, SVG Export Plug-In . SVG Version: 6.00 Build 51448)  -->
<!DOCTYPE svg PUBLIC "-//W3C//DTD SVG 1.1//EN" "http://www.w3.org/Graphics/SVG/1.1/DTD/svg11.dtd" [
	<!ENTITY ns_svg "http://www.w3.org/2000/svg">
	<!ENTITY ns_xlink "http://www.w3.org/1999/xlink">
    <!ENTITY fill_color "#FFFFFF">
    <!ENTITY stroke_color "#000000">
]>
<svg  version="1.1" id="Layer_2" xmlns="&ns_svg;" xmlns:xlink="&ns_xlink;" width="54.949" height="54.959"
	 viewBox="0 0 54.949 54.959" overflow="visible" enable-background="new 0 0 54.949 54.959" xml:space="preserve">
<rect x="1.5" y="1.5" fill="&fill_color;" stroke="&stroke_color;" stroke-width="3" width="51.949" height="51.959"/>
<rect x="6.567" y="7.26" fill="&fill_color;" stroke="&stroke_color;" stroke-width="3" width="41.59" height="40.194"/>
<path fill="&fill_color;" stroke="&stroke_color;" stroke-width="3" d="M25.547,7.913v8.824c0,0-2.77-1.364-4.085,0.326
	c-2.84,3.655,3.454,6.736,3.631,5.72c0.005-0.03,0,6.208,0,6.208l-9.014,0.137c0,0,0.847-5.364-2.48-5.038
	c-3.329,0.326-3.819,5.25-3.819,5.25H6.333"/>
<path fill="&fill_color;" stroke="&stroke_color;" stroke-width="3" d="M25.497,25.688c2.453,0.146,7.824,0.43,7.824,0.43
	s-2.387-5.658,2.785-5.299c5.172,0.357,6.499,5.014,5.769,6.232c-0.729,1.216,6.166-0.143,6.166-0.143"/>
<path fill="&fill_color;" stroke="&stroke_color;" stroke-width="3" d="M26.491,46.535v-6.23c0,0,4.641,1.792,6.169,0.288
	c1.523-1.508,2.98-5.662,0.595-6.447c-2.386-0.79-7.758,0.571-7.758,0.571l-0.398-6.733"/>
</svg>


